<?xml version="1.0" encoding="UTF-8" standalone="no"?>
<!-- Created with Inkscape (http://www.inkscape.org/) -->

<svg
   version="1.1"
   id="svg39"
   xml:space="preserve"
   width="100"
   height="100"
   viewBox="0 0 100 100"
   sodipodi:docname="Avatar.svg"
   inkscape:export-filename="/home/matej/Dropbox/Flink/Logo/Medium/avatar.png"
   inkscape:export-xdpi="96"
   inkscape:export-ydpi="96"
   inkscape:version="1.3.1 (9b9bdc1480, 2023-11-25, custom)"
   xmlns:inkscape="http://www.inkscape.org/namespaces/inkscape"
   xmlns:sodipodi="http://sodipodi.sourceforge.net/DTD/sodipodi-0.dtd"
   xmlns="http://www.w3.org/2000/svg"
   xmlns:svg="http://www.w3.org/2000/svg"><defs
     id="defs43" /><sodipodi:namedview
     id="namedview41"
     pagecolor="#ffffff"
     bordercolor="#666666"
     borderopacity="1.0"
     inkscape:pageshadow="2"
     inkscape:pageopacity="0"
     inkscape:pagecheckerboard="0"
     showgrid="false"
     inkscape:zoom="3.917211"
     inkscape:cx="30.761682"
     inkscape:cy="39.568969"
     inkscape:window-width="2560"
     inkscape:window-height="1305"
     inkscape:window-x="1680"
     inkscape:window-y="272"
     inkscape:window-maximized="1"
     inkscape:current-layer="g45"
     inkscape:showpageshadow="2"
     inkscape:deskcolor="#d1d1d1" /><g
     id="g45"
     inkscape:groupmode="layer"
     inkscape:label="ink_ext_XXXXXX"
     transform="matrix(1.3333333,0,0,-1.3333333,0,81.333333)"><path
       d="m 53.17979,18.891713 c 0.2035,1.059 -0.0184,2.2422 -0.7988,2.9113 -2.0028,1.218 -4.9332,2.5848 -6.3551,4.3641 -1.7664,2.209 -1.5996,4.0922 -0.7961,7.2816 1.3508,5.3598 3.9773,14.5379 4.5664,19.1559 0.1816,1.4226 -0.8984,1.2961 -1.7809,0.5242 l -5.707,-4.8484 c -3.2754,-3.1102 -18.57421,-16.8278 -19.99648,-19.3196 -1.27969,-2.2398 -0.22031,-3.605 1.60117,-4.7375 1.28946,-0.8019 2.95391,-1.641 3.72852,-2.1738 2.86172,-1.9664 3.14297,-4.1691 2.1293,-9.359 -1.05039,-4.3746004 -4.17344,-14.8042801 -4.17344,-18.4038901 0,-2.86602 3.65,1.37656 4.36562,2.07969 0.25938,0.24258 0.62539,0.57617 1.07813,0.98633 5.16488,4.675 21.70158,19.2616701 22.13868,21.5390701"
       style="fill:#e6f582;fill-opacity:1;fill-rule:evenodd;stroke:none;stroke-width:0.1"
       id="path59"
       inkscape:export-filename="/home/matej/Dropbox/Flink/Logo/Medium/avatar.png"
       inkscape:export-xdpi="96"
       inkscape:export-ydpi="96" /></g></svg>
